<svg id="visual" viewBox="0 0 900 600" width="900" height="600" xmlns="http://www.w3.org/2000/svg" xmlns:xlink="http://www.w3.org/1999/xlink" version="1.1"><rect x="0" y="0" width="900" height="600" fill="#001220"></rect><defs><linearGradient id="grad1_0" x1="33.3%" y1="0%" x2="100%" y2="100%"><stop offset="20%" stop-color="#001220" stop-opacity="1"></stop><stop offset="80%" stop-color="#001220" stop-opacity="1"></stop></linearGradient></defs><defs><linearGradient id="grad2_0" x1="0%" y1="0%" x2="66.7%" y2="100%"><stop offset="20%" stop-color="#001220" stop-opacity="1"></stop><stop offset="80%" stop-color="#001220" stop-opacity="1"></stop></linearGradient></defs><g transform="translate(900, 0)"><path d="M0 486.7C-62.6 471.1 -125.2 455.4 -176.8 426.8C-228.4 398.2 -268.8 356.6 -316.8 316.8C-364.7 276.9 -420.1 238.8 -449.7 186.3C-479.3 133.8 -483 66.9 -486.7 0L0 0Z" fill="#FBAE3C"></path></g><g transform="translate(0, 600)"><path d="M0 -486.7C71.2 -488.1 142.4 -489.4 186.3 -449.7C230.1 -410 246.6 -329.4 277.9 -277.9C309.2 -226.4 355.4 -204.1 392.6 -162.6C429.9 -121.2 458.3 -60.6 486.7 0L0 0Z" fill="#FBAE3C"></path></g></svg>